<svg width="213" height="66" viewBox="0 0 213 66" fill="none" xmlns="http://www.w3.org/2000/svg">
<path d="M4.14415 23.4369L7.57595 25.3935L31.7456 10.9151C29.9129 9.76198 26.2194 7.50473 26.1076 7.70084L13.3057 15.3432L1.69287 22.0394L4.14415 23.4369Z" fill="#089226"/>
<path d="M42.2128 16.734L38.7926 14.7572L14.5379 29.0926C16.3638 30.2565 20.0438 32.5355 20.1567 32.3401L33.0035 24.7735L44.6558 18.1459L42.2128 16.734Z" fill="#089226"/>
<path d="M35.9913 30.7947L32.436 32.8796L32.5116 61.5253C34.5065 60.4653 38.4676 58.2964 38.3525 58.1001L38.3358 42.9404L38.5308 29.3055L35.9913 30.7947Z" fill="#D92231"/>
<path d="M48.1658 24.1032L44.6105 26.1881L44.6862 54.8338C46.6811 53.7739 50.6422 51.6049 50.527 51.4086L50.5104 36.2489L50.7053 22.614L48.1658 24.1032Z" fill="#D92231"/>
<path d="M0.882576 32.3232L0.811835 36.4353L26.3887 51.2718C26.5263 49.0217 26.7423 44.5204 26.5049 44.5163L12.982 36.6447L0.933105 29.386L0.882576 32.3232Z" fill="#1C62DD"/>
<path d="M0.318367 46.4316L0.247626 50.5437L25.8244 65.3802C25.9621 63.13 26.1781 58.6287 25.9407 58.6246L12.4178 50.753L0.368896 43.4944L0.318367 46.4316Z" fill="#1C62DD"/>
<path d="M69.4808 34.2337C69.4808 35.0764 69.2776 35.8665 68.8713 36.6039C68.48 37.3413 67.8555 37.9357 66.9977 38.3872C66.1549 38.8386 65.0865 39.0644 63.7923 39.0644H61.1512V45.114H57.9909V29.3578H63.7923C65.0112 29.3578 66.0496 29.5685 66.9074 29.9899C67.7652 30.4112 68.4048 30.9906 68.8261 31.728C69.2625 32.4654 69.4808 33.3006 69.4808 34.2337ZM63.6568 36.5136C64.5297 36.5136 65.1768 36.3179 65.5981 35.9267C66.0195 35.5203 66.2302 34.956 66.2302 34.2337C66.2302 32.6987 65.3724 31.9312 63.6568 31.9312H61.1512V36.5136H63.6568ZM74.8848 34.5497C75.2911 33.8875 75.8178 33.3683 76.4649 32.9921C77.1271 32.6159 77.8795 32.4278 78.7223 32.4278V35.7461H77.887C76.8938 35.7461 76.1414 35.9793 75.6297 36.4458C75.1331 36.9124 74.8848 37.725 74.8848 38.8838V45.114H71.7245V32.6084H74.8848V34.5497ZM92.4761 38.5903C92.4761 39.0418 92.446 39.4481 92.3858 39.8093H83.2436C83.3189 40.7122 83.6349 41.4195 84.1917 41.9312C84.7485 42.4428 85.4332 42.6987 86.2459 42.6987C87.4197 42.6987 88.2549 42.1945 88.7515 41.1862H92.1601C91.7989 42.3902 91.1067 43.3834 90.0834 44.1659C89.06 44.9334 87.8034 45.3172 86.3136 45.3172C85.1097 45.3172 84.0262 45.0538 83.063 44.5271C82.115 43.9853 81.37 43.2254 80.8283 42.2472C80.3016 41.269 80.0382 40.1403 80.0382 38.8612C80.0382 37.567 80.3016 36.4308 80.8283 35.4526C81.355 34.4744 82.0924 33.722 83.0405 33.1953C83.9885 32.6686 85.0796 32.4052 86.3136 32.4052C87.5025 32.4052 88.5634 32.661 89.4965 33.1727C90.4445 33.6844 91.1744 34.4142 91.6861 35.3623C92.2128 36.2954 92.4761 37.3713 92.4761 38.5903ZM89.203 37.6874C89.1879 36.8747 88.8945 36.2276 88.3226 35.7461C87.7508 35.2495 87.051 35.0011 86.2233 35.0011C85.4408 35.0011 84.7786 35.2419 84.2369 35.7235C83.7101 36.19 83.3866 36.8446 83.2662 37.6874H89.203ZM99.5684 45.3172C98.5451 45.3172 97.6271 45.1366 96.8145 44.7754C96.0018 44.3992 95.3547 43.8951 94.8731 43.263C94.4066 42.6309 94.1508 41.9312 94.1056 41.1637H97.2885C97.3487 41.6452 97.5819 42.044 97.9883 42.3601C98.4096 42.6761 98.9288 42.8341 99.5458 42.8341C100.148 42.8341 100.614 42.7137 100.945 42.4729C101.292 42.2321 101.465 41.9236 101.465 41.5474C101.465 41.1411 101.254 40.8401 100.833 40.6445C100.426 40.4338 99.7716 40.2081 98.8686 39.9673C97.9356 39.7416 97.1681 39.5083 96.5661 39.2675C95.9792 39.0267 95.4676 38.658 95.0312 38.1614C94.6098 37.6648 94.3991 36.9951 94.3991 36.1524C94.3991 35.4601 94.5947 34.8281 94.986 34.2562C95.3923 33.6844 95.9642 33.2329 96.7016 32.9018C97.454 32.5707 98.3344 32.4052 99.3427 32.4052C100.833 32.4052 102.021 32.7814 102.909 33.5339C103.797 34.2713 104.286 35.272 104.377 36.5361H101.352C101.307 36.0395 101.096 35.6482 100.72 35.3623C100.358 35.0613 99.8694 34.9109 99.2524 34.9109C98.6805 34.9109 98.2366 35.0162 97.9205 35.2269C97.6196 35.4376 97.4691 35.731 97.4691 36.1072C97.4691 36.5286 97.6798 36.8522 98.1011 37.0779C98.5225 37.2886 99.1771 37.5068 100.065 37.7325C100.968 37.9583 101.713 38.1915 102.3 38.4323C102.887 38.6731 103.391 39.0493 103.812 39.561C104.249 40.0576 104.474 40.7197 104.489 41.5474C104.489 42.2698 104.286 42.9169 103.88 43.4887C103.489 44.0606 102.917 44.5121 102.164 44.8431C101.427 45.1592 100.562 45.3172 99.5684 45.3172ZM106.271 38.8612C106.271 37.567 106.534 36.4383 107.061 35.4752C107.588 34.497 108.318 33.7446 109.251 33.2179C110.184 32.6761 111.252 32.4052 112.456 32.4052C114.006 32.4052 115.285 32.7965 116.294 33.579C117.317 34.3465 118.002 35.43 118.348 36.8296H114.939C114.759 36.2878 114.45 35.8665 114.014 35.5655C113.592 35.2495 113.066 35.0914 112.433 35.0914C111.531 35.0914 110.816 35.4225 110.289 36.0847C109.762 36.7318 109.499 37.6573 109.499 38.8612C109.499 40.0501 109.762 40.9756 110.289 41.6377C110.816 42.2848 111.531 42.6084 112.433 42.6084C113.713 42.6084 114.548 42.0365 114.939 40.8928H118.348C118.002 42.2472 117.317 43.3232 116.294 44.1208C115.27 44.9184 113.991 45.3172 112.456 45.3172C111.252 45.3172 110.184 45.0538 109.251 44.5271C108.318 43.9853 107.588 43.2329 107.061 42.2698C106.534 41.2916 106.271 40.1554 106.271 38.8612ZM123.823 34.5497C124.229 33.8875 124.756 33.3683 125.403 32.9921C126.065 32.6159 126.818 32.4278 127.661 32.4278V35.7461H126.825C125.832 35.7461 125.08 35.9793 124.568 36.4458C124.071 36.9124 123.823 37.725 123.823 38.8838V45.114H120.663V32.6084H123.823V34.5497ZM131.392 31.1185C130.835 31.1185 130.369 30.9455 129.992 30.5993C129.631 30.2382 129.451 29.7942 129.451 29.2675C129.451 28.7408 129.631 28.3044 129.992 27.9583C130.369 27.5971 130.835 27.4165 131.392 27.4165C131.949 27.4165 132.408 27.5971 132.769 27.9583C133.145 28.3044 133.333 28.7408 133.333 29.2675C133.333 29.7942 133.145 30.2382 132.769 30.5993C132.408 30.9455 131.949 31.1185 131.392 31.1185ZM132.949 32.6084V45.114H129.789V32.6084H132.949ZM139.232 34.4368C139.638 33.8349 140.195 33.3458 140.903 32.9695C141.625 32.5933 142.445 32.4052 143.363 32.4052C144.431 32.4052 145.395 32.6686 146.252 33.1953C147.125 33.722 147.81 34.4744 148.307 35.4526C148.818 36.4157 149.074 37.5369 149.074 38.816C149.074 40.0952 148.818 41.2314 148.307 42.2246C147.81 43.2028 147.125 43.9628 146.252 44.5045C145.395 45.0463 144.431 45.3172 143.363 45.3172C142.43 45.3172 141.61 45.1366 140.903 44.7754C140.21 44.3992 139.653 43.9176 139.232 43.3307V45.114H136.072V28.4097H139.232V34.4368ZM145.846 38.816C145.846 38.0636 145.688 37.4165 145.372 36.8747C145.071 36.3179 144.665 35.8966 144.153 35.6106C143.656 35.3247 143.115 35.1817 142.528 35.1817C141.956 35.1817 141.414 35.3322 140.903 35.6332C140.406 35.9191 140 36.3405 139.684 36.8973C139.383 37.4541 139.232 38.1087 139.232 38.8612C139.232 39.6136 139.383 40.2683 139.684 40.8251C140 41.3819 140.406 41.8108 140.903 42.1118C141.414 42.3977 141.956 42.5406 142.528 42.5406C143.115 42.5406 143.656 42.3902 144.153 42.0892C144.665 41.7882 145.071 41.3593 145.372 40.8025C145.688 40.2457 145.846 39.5835 145.846 38.816ZM162.996 38.5903C162.996 39.0418 162.966 39.4481 162.906 39.8093H153.763C153.839 40.7122 154.155 41.4195 154.711 41.9312C155.268 42.4428 155.953 42.6987 156.766 42.6987C157.939 42.6987 158.775 42.1945 159.271 41.1862H162.68C162.319 42.3902 161.626 43.3834 160.603 44.1659C159.58 44.9334 158.323 45.3172 156.833 45.3172C155.629 45.3172 154.546 45.0538 153.583 44.5271C152.635 43.9853 151.89 43.2254 151.348 42.2472C150.821 41.269 150.558 40.1403 150.558 38.8612C150.558 37.567 150.821 36.4308 151.348 35.4526C151.875 34.4744 152.612 33.722 153.56 33.1953C154.508 32.6686 155.599 32.4052 156.833 32.4052C158.022 32.4052 159.083 32.661 160.016 33.1727C160.964 33.6844 161.694 34.4142 162.206 35.3623C162.733 36.2954 162.996 37.3713 162.996 38.5903ZM159.723 37.6874C159.708 36.8747 159.414 36.2276 158.842 35.7461C158.27 35.2495 157.571 35.0011 156.743 35.0011C155.96 35.0011 155.298 35.2419 154.757 35.7235C154.23 36.19 153.906 36.8446 153.786 37.6874H159.723ZM186.212 32.4278C187.747 32.4278 188.981 32.9018 189.914 33.8499C190.862 34.7829 191.336 36.0922 191.336 37.7777V45.114H188.176V38.2066C188.176 37.2284 187.927 36.4835 187.431 35.9718C186.934 35.4451 186.257 35.1817 185.399 35.1817C184.541 35.1817 183.857 35.4451 183.345 35.9718C182.848 36.4835 182.6 37.2284 182.6 38.2066V45.114H179.44V38.2066C179.44 37.2284 179.192 36.4835 178.695 35.9718C178.198 35.4451 177.521 35.1817 176.663 35.1817C175.79 35.1817 175.098 35.4451 174.587 35.9718C174.09 36.4835 173.842 37.2284 173.842 38.2066V45.114H170.681V32.6084H173.842V34.1208C174.248 33.5941 174.767 33.1802 175.399 32.8792C176.046 32.5783 176.754 32.4278 177.521 32.4278C178.499 32.4278 179.372 32.6385 180.14 33.0598C180.907 33.4662 181.502 34.0531 181.923 34.8206C182.329 34.0982 182.916 33.5188 183.684 33.0824C184.466 32.646 185.309 32.4278 186.212 32.4278ZM205.96 38.5903C205.96 39.0418 205.93 39.4481 205.87 39.8093H196.728C196.803 40.7122 197.119 41.4195 197.676 41.9312C198.233 42.4428 198.917 42.6987 199.73 42.6987C200.904 42.6987 201.739 42.1945 202.236 41.1862H205.644C205.283 42.3902 204.591 43.3834 203.567 44.1659C202.544 44.9334 201.288 45.3172 199.798 45.3172C198.594 45.3172 197.51 45.0538 196.547 44.5271C195.599 43.9853 194.854 43.2254 194.312 42.2472C193.786 41.269 193.522 40.1403 193.522 38.8612C193.522 37.567 193.786 36.4308 194.312 35.4526C194.839 34.4744 195.576 33.722 196.525 33.1953C197.473 32.6686 198.564 32.4052 199.798 32.4052C200.987 32.4052 202.047 32.661 202.981 33.1727C203.929 33.6844 204.658 34.4142 205.17 35.3623C205.697 36.2954 205.96 37.3713 205.96 38.5903ZM202.687 37.6874C202.672 36.8747 202.379 36.2276 201.807 35.7461C201.235 35.2495 200.535 35.0011 199.707 35.0011C198.925 35.0011 198.263 35.2419 197.721 35.7235C197.194 36.19 196.871 36.8446 196.75 37.6874H202.687Z" fill="#333333"/>
<path d="M58.6382 48.1751C58.619 48.0127 58.541 47.8866 58.4042 47.7968C58.2674 47.707 58.0995 47.6621 57.9007 47.6621C57.7554 47.6621 57.6282 47.6856 57.5192 47.7327C57.4112 47.7797 57.3268 47.8443 57.2659 47.9266C57.206 48.0089 57.1761 48.1025 57.1761 48.2072C57.1761 48.2949 57.1969 48.3702 57.2386 48.4333C57.2814 48.4953 57.3359 48.5471 57.4021 48.5888C57.4684 48.6294 57.5379 48.6631 57.6106 48.6898C57.6832 48.7154 57.75 48.7363 57.811 48.7523L58.1444 48.8421C58.2299 48.8645 58.3251 48.8955 58.4298 48.9351C58.5356 48.9746 58.6366 49.0286 58.7328 49.097C58.8301 49.1643 58.9102 49.2509 58.9733 49.3567C59.0364 49.4625 59.0679 49.5924 59.0679 49.7463C59.0679 49.9237 59.0214 50.084 58.9284 50.2273C58.8365 50.3705 58.7018 50.4843 58.5244 50.5688C58.348 50.6532 58.1337 50.6954 57.8815 50.6954C57.6464 50.6954 57.4428 50.6575 57.2707 50.5816C57.0997 50.5057 56.965 50.3999 56.8667 50.2641C56.7694 50.1284 56.7144 49.9708 56.7015 49.7912H57.112C57.1227 49.9152 57.1643 50.0178 57.237 50.099C57.3108 50.1792 57.4037 50.239 57.516 50.2786C57.6293 50.3171 57.7511 50.3363 57.8815 50.3363C58.0333 50.3363 58.1696 50.3117 58.2903 50.2625C58.4111 50.2123 58.5068 50.1428 58.5773 50.0541C58.6478 49.9643 58.6831 49.8596 58.6831 49.7399C58.6831 49.6309 58.6527 49.5422 58.5917 49.4738C58.5308 49.4054 58.4507 49.3498 58.3513 49.307C58.2519 49.2643 58.1444 49.2269 58.029 49.1948L57.625 49.0794C57.3685 49.0056 57.1654 48.9003 57.0158 48.7635C56.8661 48.6267 56.7913 48.4477 56.7913 48.2264C56.7913 48.0426 56.841 47.8823 56.9404 47.7455C57.0409 47.6076 57.1756 47.5007 57.3444 47.4248C57.5144 47.3479 57.7041 47.3094 57.9136 47.3094C58.1252 47.3094 58.3133 47.3473 58.4779 47.4232C58.6425 47.4981 58.7729 47.6007 58.8691 47.7311C58.9664 47.8614 59.0177 48.0095 59.023 48.1751H58.6382ZM59.542 47.707V47.3543H62.0046V47.707H60.9721V50.6377H60.5745V47.707H59.542ZM62.6182 50.6377V47.3543H63.7277C63.9842 47.3543 64.1947 47.3981 64.3593 47.4858C64.5239 47.5723 64.6458 47.6915 64.7249 47.8433C64.804 47.9951 64.8435 48.1677 64.8435 48.3611C64.8435 48.5546 64.804 48.7261 64.7249 48.8758C64.6458 49.0254 64.5245 49.143 64.3609 49.2285C64.1974 49.3129 63.9884 49.3551 63.7341 49.3551H62.8363V48.996H63.7212C63.8965 48.996 64.0376 48.9703 64.1445 48.919C64.2524 48.8677 64.3305 48.7951 64.3786 48.701C64.4277 48.6059 64.4523 48.4926 64.4523 48.3611C64.4523 48.2297 64.4277 48.1148 64.3786 48.0164C64.3294 47.9181 64.2508 47.8422 64.1429 47.7888C64.0349 47.7343 63.8923 47.707 63.7148 47.707H63.0158V50.6377H62.6182ZM64.1637 49.1627L64.9718 50.6377H64.51L63.7148 49.1627H64.1637ZM65.506 50.6377V47.3543H67.4876V47.707H65.9036V48.8164H67.385V49.1691H65.9036V50.285H67.5133V50.6377H65.506ZM68.3389 50.6377H67.9221L69.1277 47.3543H69.5381L70.7438 50.6377H70.3269L69.3457 47.8737H69.3201L68.3389 50.6377ZM68.4928 49.3551H70.173V49.7078H68.4928V49.3551ZM71.2552 47.3543H71.7297L72.8456 50.0798H72.8841L73.9999 47.3543H74.4745V50.6377H74.1025V48.1431H74.0704L73.0444 50.6377H72.6853L71.6592 48.1431H71.6271V50.6377H71.2552V47.3543ZM75.2717 50.6377V47.3543H75.6693V50.285H77.1955V50.6377H75.2717ZM78.2088 47.3543V50.6377H77.8112V47.3543H78.2088ZM81.6096 47.3543V50.6377H81.2248L79.4356 48.0597H79.4036V50.6377H79.006V47.3543H79.3907L81.1863 49.9387H81.2184V47.3543H81.6096ZM82.4052 50.6377V47.3543H84.3868V47.707H82.8028V48.8164H84.2842V49.1691H82.8028V50.285H84.4124V50.6377H82.4052ZM86.091 47.3543H86.5463L87.4569 48.887H87.4954L88.4061 47.3543H88.8614L87.675 49.2846V50.6377H87.2774V49.2846L86.091 47.3543ZM91.9917 48.996C91.9917 49.3423 91.9291 49.6416 91.8041 49.8938C91.679 50.146 91.5075 50.3406 91.2894 50.4774C91.0714 50.6142 90.8224 50.6826 90.5423 50.6826C90.2623 50.6826 90.0133 50.6142 89.7952 50.4774C89.5772 50.3406 89.4057 50.146 89.2806 49.8938C89.1556 49.6416 89.093 49.3423 89.093 48.996C89.093 48.6497 89.1556 48.3504 89.2806 48.0982C89.4057 47.846 89.5772 47.6514 89.7952 47.5146C90.0133 47.3778 90.2623 47.3094 90.5423 47.3094C90.8224 47.3094 91.0714 47.3778 91.2894 47.5146C91.5075 47.6514 91.679 47.846 91.8041 48.0982C91.9291 48.3504 91.9917 48.6497 91.9917 48.996ZM91.6069 48.996C91.6069 48.7117 91.5593 48.4717 91.4642 48.2761C91.3701 48.0806 91.2424 47.9325 91.081 47.8321C90.9207 47.7316 90.7411 47.6814 90.5423 47.6814C90.3435 47.6814 90.1635 47.7316 90.0021 47.8321C89.8417 47.9325 89.714 48.0806 89.6189 48.2761C89.5248 48.4717 89.4778 48.7117 89.4778 48.996C89.4778 49.2803 89.5248 49.5202 89.6189 49.7158C89.714 49.9114 89.8417 50.0595 90.0021 50.1599C90.1635 50.2604 90.3435 50.3106 90.5423 50.3106C90.7411 50.3106 90.9207 50.2604 91.081 50.1599C91.2424 50.0595 91.3701 49.9114 91.4642 49.7158C91.5593 49.5202 91.6069 49.2803 91.6069 48.996ZM94.8149 47.3543H95.2125V49.5283C95.2125 49.7527 95.1596 49.9531 95.0538 50.1295C94.9491 50.3048 94.801 50.4432 94.6097 50.5447C94.4184 50.6452 94.1939 50.6954 93.9364 50.6954C93.6788 50.6954 93.4543 50.6452 93.263 50.5447C93.0717 50.4432 92.9231 50.3048 92.8173 50.1295C92.7126 49.9531 92.6602 49.7527 92.6602 49.5283V47.3543H93.0578V49.4962C93.0578 49.6565 93.0931 49.7992 93.1636 49.9243C93.2342 50.0482 93.3346 50.146 93.465 50.2177C93.5965 50.2882 93.7536 50.3235 93.9364 50.3235C94.1191 50.3235 94.2762 50.2882 94.4077 50.2177C94.5392 50.146 94.6396 50.0482 94.7091 49.9243C94.7797 49.7992 94.8149 49.6565 94.8149 49.4962V47.3543ZM96.0065 50.6377V47.3543H97.116C97.3725 47.3543 97.583 47.3981 97.7476 47.4858C97.9122 47.5723 98.0341 47.6915 98.1132 47.8433C98.1922 47.9951 98.2318 48.1677 98.2318 48.3611C98.2318 48.5546 98.1922 48.7261 98.1132 48.8758C98.0341 49.0254 97.9128 49.143 97.7492 49.2285C97.5857 49.3129 97.3767 49.3551 97.1224 49.3551H96.2246V48.996H97.1095C97.2848 48.996 97.4259 48.9703 97.5328 48.919C97.6407 48.8677 97.7188 48.7951 97.7669 48.701C97.816 48.6059 97.8406 48.4926 97.8406 48.3611C97.8406 48.2297 97.816 48.1148 97.7669 48.0164C97.7177 47.9181 97.6391 47.8422 97.5312 47.7888C97.4232 47.7343 97.2806 47.707 97.1031 47.707H96.4041V50.6377H96.0065ZM97.552 49.1627L98.3601 50.6377H97.8983L97.1031 49.1627H97.552ZM101.434 50.6377V47.3543H102.543C102.801 47.3543 103.011 47.4008 103.175 47.4938C103.34 47.5857 103.461 47.7102 103.54 47.8673C103.62 48.0244 103.659 48.1997 103.659 48.3932C103.659 48.5866 103.62 48.7625 103.54 48.9206C103.462 49.0788 103.342 49.2049 103.178 49.299C103.015 49.392 102.805 49.4385 102.55 49.4385H101.754V49.0858H102.537C102.713 49.0858 102.855 49.0553 102.962 48.9944C103.069 48.9335 103.146 48.8512 103.194 48.7475C103.243 48.6428 103.268 48.5246 103.268 48.3932C103.268 48.2617 103.243 48.1442 103.194 48.0405C103.146 47.9368 103.068 47.8556 102.96 47.7968C102.852 47.7369 102.709 47.707 102.53 47.707H101.831V50.6377H101.434ZM104.3 50.6377V47.3543H105.409C105.666 47.3543 105.876 47.3981 106.041 47.4858C106.205 47.5723 106.327 47.6915 106.406 47.8433C106.485 47.9951 106.525 48.1677 106.525 48.3611C106.525 48.5546 106.485 48.7261 106.406 48.8758C106.327 49.0254 106.206 49.143 106.042 49.2285C105.879 49.3129 105.67 49.3551 105.415 49.3551H104.518V48.996H105.403C105.578 48.996 105.719 48.9703 105.826 48.919C105.934 48.8677 106.012 48.7951 106.06 48.701C106.109 48.6059 106.134 48.4926 106.134 48.3611C106.134 48.2297 106.109 48.1148 106.06 48.0164C106.011 47.9181 105.932 47.8422 105.824 47.7888C105.716 47.7343 105.574 47.707 105.396 47.707H104.697V50.6377H104.3ZM105.845 49.1627L106.653 50.6377H106.191L105.396 49.1627H105.845ZM107.187 50.6377V47.3543H109.169V47.707H107.585V48.8164H109.066V49.1691H107.585V50.285H109.195V50.6377H107.187ZM111.681 48.1751C111.662 48.0127 111.584 47.8866 111.447 47.7968C111.31 47.707 111.143 47.6621 110.944 47.6621C110.798 47.6621 110.671 47.6856 110.562 47.7327C110.454 47.7797 110.37 47.8443 110.309 47.9266C110.249 48.0089 110.219 48.1025 110.219 48.2072C110.219 48.2949 110.24 48.3702 110.282 48.4333C110.324 48.4953 110.379 48.5471 110.445 48.5888C110.511 48.6294 110.581 48.6631 110.654 48.6898C110.726 48.7154 110.793 48.7363 110.854 48.7523L111.187 48.8421C111.273 48.8645 111.368 48.8955 111.473 48.9351C111.579 48.9746 111.68 49.0286 111.776 49.097C111.873 49.1643 111.953 49.2509 112.016 49.3567C112.079 49.4625 112.111 49.5924 112.111 49.7463C112.111 49.9237 112.064 50.084 111.971 50.2273C111.879 50.3705 111.745 50.4843 111.567 50.5688C111.391 50.6532 111.177 50.6954 110.925 50.6954C110.689 50.6954 110.486 50.6575 110.314 50.5816C110.143 50.5057 110.008 50.3999 109.91 50.2641C109.812 50.1284 109.757 49.9708 109.745 49.7912H110.155C110.166 49.9152 110.207 50.0178 110.28 50.099C110.354 50.1792 110.447 50.239 110.559 50.2786C110.672 50.3171 110.794 50.3363 110.925 50.3363C111.076 50.3363 111.213 50.3117 111.333 50.2625C111.454 50.2123 111.55 50.1428 111.62 50.0541C111.691 49.9643 111.726 49.8596 111.726 49.7399C111.726 49.6309 111.696 49.5422 111.635 49.4738C111.574 49.4054 111.494 49.3498 111.394 49.307C111.295 49.2643 111.187 49.2269 111.072 49.1948L110.668 49.0794C110.411 49.0056 110.208 48.9003 110.059 48.7635C109.909 48.6267 109.834 48.4477 109.834 48.2264C109.834 48.0426 109.884 47.8823 109.983 47.7455C110.084 47.6076 110.219 47.5007 110.387 47.4248C110.557 47.3479 110.747 47.3094 110.957 47.3094C111.168 47.3094 111.356 47.3473 111.521 47.4232C111.686 47.4981 111.816 47.6007 111.912 47.7311C112.009 47.8614 112.061 48.0095 112.066 48.1751H111.681ZM115.407 48.3804H115.009C114.986 48.266 114.944 48.1655 114.886 48.079C114.828 47.9924 114.757 47.9197 114.674 47.8609C114.592 47.8011 114.5 47.7562 114.4 47.7262C114.299 47.6963 114.195 47.6814 114.086 47.6814C113.887 47.6814 113.707 47.7316 113.545 47.8321C113.385 47.9325 113.257 48.0806 113.162 48.2761C113.068 48.4717 113.021 48.7117 113.021 48.996C113.021 49.2803 113.068 49.5202 113.162 49.7158C113.257 49.9114 113.385 50.0595 113.545 50.1599C113.707 50.2604 113.887 50.3106 114.086 50.3106C114.195 50.3106 114.299 50.2957 114.4 50.2657C114.5 50.2358 114.592 50.1915 114.674 50.1327C114.757 50.0728 114.828 49.9996 114.886 49.913C114.944 49.8254 114.986 49.7249 115.009 49.6116H115.407C115.377 49.7794 115.322 49.9296 115.243 50.0621C115.164 50.1947 115.066 50.3074 114.948 50.4004C114.831 50.4923 114.699 50.5623 114.552 50.6104C114.407 50.6585 114.251 50.6826 114.086 50.6826C113.806 50.6826 113.557 50.6142 113.339 50.4774C113.121 50.3406 112.949 50.146 112.824 49.8938C112.699 49.6416 112.636 49.3423 112.636 48.996C112.636 48.6497 112.699 48.3504 112.824 48.0982C112.949 47.846 113.121 47.6514 113.339 47.5146C113.557 47.3778 113.806 47.3094 114.086 47.3094C114.251 47.3094 114.407 47.3335 114.552 47.3816C114.699 47.4296 114.831 47.5002 114.948 47.5932C115.066 47.6851 115.164 47.7973 115.243 47.9299C115.322 48.0613 115.377 48.2115 115.407 48.3804ZM116.049 50.6377V47.3543H117.159C117.415 47.3543 117.626 47.3981 117.79 47.4858C117.955 47.5723 118.077 47.6915 118.156 47.8433C118.235 47.9951 118.274 48.1677 118.274 48.3611C118.274 48.5546 118.235 48.7261 118.156 48.8758C118.077 49.0254 117.955 49.143 117.792 49.2285C117.628 49.3129 117.419 49.3551 117.165 49.3551H116.267V48.996H117.152C117.328 48.996 117.469 48.9703 117.575 48.919C117.683 48.8677 117.761 48.7951 117.81 48.701C117.859 48.6059 117.883 48.4926 117.883 48.3611C117.883 48.2297 117.859 48.1148 117.81 48.0164C117.76 47.9181 117.682 47.8422 117.574 47.7888C117.466 47.7343 117.323 47.707 117.146 47.707H116.447V50.6377H116.049ZM117.595 49.1627L118.403 50.6377H117.941L117.146 49.1627H117.595ZM119.335 47.3543V50.6377H118.937V47.3543H119.335ZM120.132 50.6377V47.3543H121.241C121.499 47.3543 121.709 47.4008 121.873 47.4938C122.038 47.5857 122.159 47.7102 122.238 47.8673C122.318 48.0244 122.357 48.1997 122.357 48.3932C122.357 48.5866 122.318 48.7625 122.238 48.9206C122.16 49.0788 122.04 49.2049 121.876 49.299C121.713 49.392 121.503 49.4385 121.248 49.4385H120.452V49.0858H121.235C121.411 49.0858 121.553 49.0553 121.66 48.9944C121.767 48.9335 121.844 48.8512 121.892 48.7475C121.941 48.6428 121.966 48.5246 121.966 48.3932C121.966 48.2617 121.941 48.1442 121.892 48.0405C121.844 47.9368 121.766 47.8556 121.658 47.7968C121.55 47.7369 121.407 47.707 121.228 47.707H120.529V50.6377H120.132ZM122.818 47.707V47.3543H125.281V47.707H124.248V50.6377H123.85V47.707H122.818ZM126.292 47.3543V50.6377H125.894V47.3543H126.292ZM129.859 48.996C129.859 49.3423 129.797 49.6416 129.672 49.8938C129.547 50.146 129.375 50.3406 129.157 50.4774C128.939 50.6142 128.69 50.6826 128.41 50.6826C128.13 50.6826 127.881 50.6142 127.663 50.4774C127.445 50.3406 127.273 50.146 127.148 49.8938C127.023 49.6416 126.961 49.3423 126.961 48.996C126.961 48.6497 127.023 48.3504 127.148 48.0982C127.273 47.846 127.445 47.6514 127.663 47.5146C127.881 47.3778 128.13 47.3094 128.41 47.3094C128.69 47.3094 128.939 47.3778 129.157 47.5146C129.375 47.6514 129.547 47.846 129.672 48.0982C129.797 48.3504 129.859 48.6497 129.859 48.996ZM129.475 48.996C129.475 48.7117 129.427 48.4717 129.332 48.2761C129.238 48.0806 129.11 47.9325 128.949 47.8321C128.788 47.7316 128.609 47.6814 128.41 47.6814C128.211 47.6814 128.031 47.7316 127.87 47.8321C127.709 47.9325 127.582 48.0806 127.487 48.2761C127.393 48.4717 127.346 48.7117 127.346 48.996C127.346 49.2803 127.393 49.5202 127.487 49.7158C127.582 49.9114 127.709 50.0595 127.87 50.1599C128.031 50.2604 128.211 50.3106 128.41 50.3106C128.609 50.3106 128.788 50.2604 128.949 50.1599C129.11 50.0595 129.238 49.9114 129.332 49.7158C129.427 49.5202 129.475 49.2803 129.475 48.996ZM133.132 47.3543V50.6377H132.747L130.958 48.0597H130.926V50.6377H130.528V47.3543H130.913L132.708 49.9387H132.74V47.3543H133.132ZM135.723 48.1751C135.704 48.0127 135.625 47.8866 135.489 47.7968C135.352 47.707 135.184 47.6621 134.985 47.6621C134.84 47.6621 134.713 47.6856 134.604 47.7327C134.496 47.7797 134.411 47.8443 134.35 47.9266C134.291 48.0089 134.261 48.1025 134.261 48.2072C134.261 48.2949 134.281 48.3702 134.323 48.4333C134.366 48.4953 134.42 48.5471 134.487 48.5888C134.553 48.6294 134.622 48.6631 134.695 48.6898C134.768 48.7154 134.835 48.7363 134.895 48.7523L135.229 48.8421C135.314 48.8645 135.41 48.8955 135.514 48.9351C135.62 48.9746 135.721 49.0286 135.817 49.097C135.915 49.1643 135.995 49.2509 136.058 49.3567C136.121 49.4625 136.152 49.5924 136.152 49.7463C136.152 49.9237 136.106 50.084 136.013 50.2273C135.921 50.3705 135.786 50.4843 135.609 50.5688C135.433 50.6532 135.218 50.6954 134.966 50.6954C134.731 50.6954 134.527 50.6575 134.355 50.5816C134.184 50.5057 134.05 50.3999 133.951 50.2641C133.854 50.1284 133.799 49.9708 133.786 49.7912H134.196C134.207 49.9152 134.249 50.0178 134.322 50.099C134.395 50.1792 134.488 50.239 134.6 50.2786C134.714 50.3171 134.836 50.3363 134.966 50.3363C135.118 50.3363 135.254 50.3117 135.375 50.2625C135.496 50.2123 135.591 50.1428 135.662 50.0541C135.732 49.9643 135.768 49.8596 135.768 49.7399C135.768 49.6309 135.737 49.5422 135.676 49.4738C135.615 49.4054 135.535 49.3498 135.436 49.307C135.336 49.2643 135.229 49.2269 135.114 49.1948L134.71 49.0794C134.453 49.0056 134.25 48.9003 134.1 48.7635C133.951 48.6267 133.876 48.4477 133.876 48.2264C133.876 48.0426 133.926 47.8823 134.025 47.7455C134.125 47.6076 134.26 47.5007 134.429 47.4248C134.599 47.3479 134.789 47.3094 134.998 47.3094C135.21 47.3094 135.398 47.3473 135.562 47.4232C135.727 47.4981 135.857 47.6007 135.954 47.7311C136.051 47.8614 136.102 48.0095 136.108 48.1751H135.723ZM138.672 50.6377L137.774 47.3543H138.178L138.865 50.0285H138.897L139.596 47.3543H140.045L140.744 50.0285H140.776L141.462 47.3543H141.866L140.968 50.6377H140.558L139.833 48.0212H139.807L139.083 50.6377H138.672ZM142.759 47.3543V50.6377H142.361V47.3543H142.759ZM143.377 47.707V47.3543H145.839V47.707H144.807V50.6377H144.409V47.707H143.377ZM146.453 50.6377V47.3543H146.85V48.8164H148.601V47.3543H148.999V50.6377H148.601V49.1691H146.85V50.6377H146.453ZM151.064 50.6377V47.3543H153.046V47.707H151.462V48.8164H152.943V49.1691H151.462V50.285H153.072V50.6377H151.064ZM153.897 50.6377H153.48L154.686 47.3543H155.096L156.302 50.6377H155.885L154.904 47.8737H154.878L153.897 50.6377ZM154.051 49.3551H155.731V49.7078H154.051V49.3551ZM158.609 48.1751C158.59 48.0127 158.512 47.8866 158.375 47.7968C158.238 47.707 158.07 47.6621 157.872 47.6621C157.726 47.6621 157.599 47.6856 157.49 47.7327C157.382 47.7797 157.298 47.8443 157.237 47.9266C157.177 48.0089 157.147 48.1025 157.147 48.2072C157.147 48.2949 157.168 48.3702 157.21 48.4333C157.252 48.4953 157.307 48.5471 157.373 48.5888C157.439 48.6294 157.509 48.6631 157.581 48.6898C157.654 48.7154 157.721 48.7363 157.782 48.7523L158.115 48.8421C158.201 48.8645 158.296 48.8955 158.401 48.9351C158.507 48.9746 158.608 49.0286 158.704 49.097C158.801 49.1643 158.881 49.2509 158.944 49.3567C159.007 49.4625 159.039 49.5924 159.039 49.7463C159.039 49.9237 158.992 50.084 158.899 50.2273C158.807 50.3705 158.673 50.4843 158.495 50.5688C158.319 50.6532 158.105 50.6954 157.852 50.6954C157.617 50.6954 157.414 50.6575 157.242 50.5816C157.071 50.5057 156.936 50.3999 156.838 50.2641C156.74 50.1284 156.685 49.9708 156.672 49.7912H157.083C157.094 49.9152 157.135 50.0178 157.208 50.099C157.282 50.1792 157.375 50.239 157.487 50.2786C157.6 50.3171 157.722 50.3363 157.852 50.3363C158.004 50.3363 158.14 50.3117 158.261 50.2625C158.382 50.2123 158.478 50.1428 158.548 50.0541C158.619 49.9643 158.654 49.8596 158.654 49.7399C158.654 49.6309 158.624 49.5422 158.563 49.4738C158.502 49.4054 158.422 49.3498 158.322 49.307C158.223 49.2643 158.115 49.2269 158 49.1948L157.596 49.0794C157.339 49.0056 157.136 48.9003 156.987 48.7635C156.837 48.6267 156.762 48.4477 156.762 48.2264C156.762 48.0426 156.812 47.8823 156.911 47.7455C157.012 47.6076 157.146 47.5007 157.315 47.4248C157.485 47.3479 157.675 47.3094 157.884 47.3094C158.096 47.3094 158.284 47.3473 158.449 47.4232C158.613 47.4981 158.744 47.6007 158.84 47.7311C158.937 47.8614 158.989 48.0095 158.994 48.1751H158.609ZM159.693 50.6377V47.3543H161.674V47.707H160.09V48.8164H161.571V49.1691H160.09V50.285H161.7V50.6377H159.693ZM163.75 48.8196V49.1724H162.314V48.8196H163.75ZM164.602 50.6377H164.185L165.391 47.3543H165.801L167.007 50.6377H166.59L165.609 47.8737H165.583L164.602 50.6377ZM164.756 49.3551H166.436V49.7078H164.756V49.3551ZM170.122 47.3543V50.6377H169.737L167.948 48.0597H167.916V50.6377H167.518V47.3543H167.903L169.699 49.9387H169.731V47.3543H170.122ZM170.635 47.3543H171.091L172.001 48.887H172.04L172.95 47.3543H173.406L172.219 49.2846V50.6377H171.822V49.2846L170.635 47.3543ZM173.948 47.707V47.3543H176.41V47.707H175.378V50.6377H174.98V47.707H173.948ZM177.421 47.3543V50.6377H177.024V47.3543H177.421ZM178.219 47.3543H178.693L179.809 50.0798H179.847L180.963 47.3543H181.438V50.6377H181.066V48.1431H181.034L180.008 50.6377H179.649L178.623 48.1431H178.59V50.6377H178.219V47.3543ZM182.235 50.6377V47.3543H184.217V47.707H182.633V48.8164H184.114V49.1691H182.633V50.285H184.242V50.6377H182.235ZM185.446 50.1888L185.421 50.3619C185.402 50.4838 185.375 50.6142 185.337 50.7531C185.301 50.8921 185.263 51.023 185.223 51.1459C185.184 51.2688 185.151 51.3666 185.126 51.4393H184.837C184.851 51.3709 184.869 51.2806 184.892 51.1684C184.914 51.0561 184.936 50.9306 184.959 50.7916C184.982 50.6537 185.002 50.5126 185.017 50.3684L185.036 50.1888H185.446ZM186.333 50.6377H185.916L187.122 47.3543H187.532L188.738 50.6377H188.321L187.34 47.8737H187.314L186.333 50.6377ZM186.487 49.3551H188.167V49.7078H186.487V49.3551ZM191.853 47.3543V50.6377H191.468L189.679 48.0597H189.647V50.6377H189.25V47.3543H189.634L191.43 49.9387H191.462V47.3543H191.853ZM192.367 47.3543H192.822L193.733 48.887H193.771L194.682 47.3543H195.137L193.951 49.2846V50.6377H193.553V49.2846L192.367 47.3543ZM196.248 50.6377L195.35 47.3543H195.754L196.44 50.0285H196.472L197.171 47.3543H197.62L198.319 50.0285H198.351L199.037 47.3543H199.441L198.543 50.6377H198.133L197.408 48.0212H197.383L196.658 50.6377H196.248ZM199.937 50.6377V47.3543H200.334V48.8164H202.085V47.3543H202.483V50.6377H202.085V49.1691H200.334V50.6377H199.937ZM203.279 50.6377V47.3543H205.26V47.707H203.676V48.8164H205.157V49.1691H203.676V50.285H205.286V50.6377H203.279ZM205.977 50.6377V47.3543H207.086C207.343 47.3543 207.553 47.3981 207.718 47.4858C207.882 47.5723 208.004 47.6915 208.083 47.8433C208.162 47.9951 208.202 48.1677 208.202 48.3611C208.202 48.5546 208.162 48.7261 208.083 48.8758C208.004 49.0254 207.883 49.143 207.719 49.2285C207.556 49.3129 207.347 49.3551 207.093 49.3551H206.195V48.996H207.08C207.255 48.996 207.396 48.9703 207.503 48.919C207.611 48.8677 207.689 48.7951 207.737 48.701C207.786 48.6059 207.811 48.4926 207.811 48.3611C207.811 48.2297 207.786 48.1148 207.737 48.0164C207.688 47.9181 207.609 47.8422 207.501 47.7888C207.393 47.7343 207.251 47.707 207.073 47.707H206.374V50.6377H205.977ZM207.522 49.1627L208.33 50.6377H207.869L207.073 49.1627H207.522ZM208.865 50.6377V47.3543H210.846V47.707H209.262V48.8164H210.744V49.1691H209.262V50.285H210.872V50.6377H208.865ZM212.012 47.3543L211.98 49.7142H211.608L211.576 47.3543H212.012ZM211.794 50.6633C211.715 50.6633 211.647 50.635 211.59 50.5784C211.533 50.5217 211.505 50.4539 211.505 50.3748C211.505 50.2957 211.533 50.2278 211.59 50.1712C211.647 50.1145 211.715 50.0862 211.794 50.0862C211.873 50.0862 211.941 50.1145 211.997 50.1712C212.054 50.2278 212.082 50.2957 212.082 50.3748C212.082 50.4271 212.069 50.4752 212.042 50.5191C212.016 50.5629 211.982 50.5981 211.938 50.6249C211.895 50.6505 211.847 50.6633 211.794 50.6633Z" fill="#585858"/>
</svg>
