<svg width="113" height="115" viewBox="0 0 113 115" fill="none" xmlns="http://www.w3.org/2000/svg">
<path d="M7.34367 40.4582L13.4248 43.9252L56.2534 18.2695C53.0058 16.2262 46.4611 12.2263 46.263 12.5738L23.578 26.1161L3 37.9818L7.34367 40.4582Z" fill="#089226"/>
<path d="M74.8009 28.5806L68.7404 25.0778L25.761 50.48C28.9965 52.5425 35.5175 56.581 35.7176 56.2346L58.4822 42.8266L79.1299 31.0826L74.8009 28.5806Z" fill="#089226"/>
<path d="M63.7766 53.4961L57.4767 57.1905L57.6107 107.951C61.1457 106.072 68.1647 102.229 67.9607 101.881L67.9312 75.0183L68.2766 50.8572L63.7766 53.4961Z" fill="#D92231"/>
<path d="M85.3499 41.6389L79.0499 45.3333L79.184 96.0934C82.7189 94.2152 89.7379 90.3719 89.5339 90.024L89.5044 63.1611L89.8499 39L85.3499 41.6389Z" fill="#D92231"/>
<path d="M1.56415 56.2047L1.4388 63.4913L46.7609 89.7816C47.0049 85.7944 47.3876 77.818 46.9669 77.8108L23.0043 63.8623L1.65369 51L1.56415 56.2047Z" fill="#1C62DD"/>
<path d="M0.564149 81.2047L0.438796 88.4913L45.7609 114.782C46.0049 110.794 46.3876 102.818 45.9669 102.811L22.0043 88.8623L0.653687 76L0.564149 81.2047Z" fill="#1C62DD"/>
</svg>
