<svg width="236" height="55" viewBox="0 0 236 55" fill="none" xmlns="http://www.w3.org/2000/svg">
<path d="M3.47593 19.1502L6.35433 20.7912L26.6265 8.64755C25.0893 7.68036 21.9915 5.7871 21.8977 5.95158L11.1602 12.3616L1.41992 17.978L3.47593 19.1502Z" fill="#089226"/>
<path d="M35.4051 13.5281L32.5364 11.8701L12.1928 23.8939C13.7243 24.8701 16.8109 26.7816 16.9056 26.6177L27.6808 20.2712L37.4541 14.7124L35.4051 13.5281Z" fill="#089226"/>
<path d="M30.1884 25.3215L27.2064 27.0701L27.2698 51.0966C28.9431 50.2076 32.2654 48.3884 32.1688 48.2238L32.1549 35.5086L32.3184 24.0724L30.1884 25.3215Z" fill="#D92231"/>
<path d="M40.3983 19.709L37.4163 21.4577L37.4798 45.4842C39.153 44.5952 42.4753 42.776 42.3788 42.6113L42.3648 29.8962L42.5283 18.46L40.3983 19.709Z" fill="#D92231"/>
<path d="M0.740822 26.6035L0.681488 30.0525L22.134 42.4966C22.2494 40.6093 22.4306 36.8338 22.2314 36.8304L10.8891 30.2281L0.783203 24.14L0.740822 26.6035Z" fill="#1C62DD"/>
<path d="M0.267189 38.4369L0.207855 41.8859L21.6603 54.33C21.7758 52.4427 21.957 48.6672 21.7578 48.6638L10.4155 42.0615L0.30957 35.9733L0.267189 38.4369Z" fill="#1C62DD"/>
<path d="M51.81 36.1V17.1925C52.5504 17.1022 53.363 17.039 54.2479 17.0029C55.1509 16.9487 56.0809 16.9216 57.038 16.9216C58.6091 16.9216 59.9454 17.1745 61.047 17.6801C62.1486 18.1677 62.9883 18.8449 63.5662 19.7117C64.1441 20.5785 64.433 21.5718 64.433 22.6914C64.433 24.0458 64.0989 25.1925 63.4308 26.1316C62.7626 27.0706 61.8326 27.793 60.6407 28.2986C59.4488 28.7862 58.0673 29.03 56.4962 29.03C55.7378 29.03 55.0335 29.0029 54.3834 28.9487V36.1H51.81ZM56.8213 26.89C58.4285 26.89 59.6746 26.5289 60.5594 25.8065C61.4443 25.0842 61.8867 24.118 61.8867 22.9081C61.8867 21.7343 61.4624 20.8043 60.6136 20.118C59.7648 19.4318 58.5549 19.0887 56.9838 19.0887C56.4962 19.0887 56.0357 19.0977 55.6023 19.1158C55.1689 19.1338 54.7626 19.1609 54.3834 19.197V26.7546C54.6723 26.7907 55.0244 26.8268 55.4398 26.863C55.8551 26.881 56.3156 26.89 56.8213 26.89ZM67.2787 36.1V22.0142H69.6354V25.0751C69.8702 24.4792 70.1862 23.9284 70.5835 23.4228C70.9808 22.8991 71.4774 22.4837 72.0733 22.1767C72.6693 21.8517 73.3645 21.6891 74.1591 21.6891C74.43 21.6891 74.7009 21.7072 74.9717 21.7433C75.2426 21.7614 75.4684 21.7975 75.6489 21.8517L74.9176 24.3709C74.5745 24.2264 74.1681 24.1542 73.6986 24.1542C73.0304 24.1542 72.3894 24.3438 71.7754 24.723C71.1794 25.1022 70.6828 25.6891 70.2855 26.4837C69.9063 27.2783 69.7167 28.2896 69.7167 29.5176V36.1H67.2787ZM82.9124 36.425C80.8898 36.425 79.2826 35.7839 78.0907 34.5018C76.9169 33.2016 76.33 31.3867 76.33 29.0571C76.33 27.6485 76.5918 26.3934 77.1155 25.2918C77.6573 24.1722 78.4067 23.2964 79.3638 22.6643C80.3209 22.0142 81.4315 21.6891 82.6956 21.6891C84.05 21.6891 85.1697 21.9871 86.0546 22.583C86.9575 23.1609 87.6347 23.9465 88.0862 24.9397C88.5376 25.9329 88.7634 27.0255 88.7634 28.2174C88.7634 28.8494 88.7363 29.4634 88.6821 30.0593H78.8221C78.9846 31.3776 79.4451 32.407 80.2035 33.1474C80.962 33.8878 81.9643 34.258 83.2103 34.258C84.023 34.258 84.7543 34.1767 85.4045 34.0142C86.0546 33.8336 86.6776 33.6079 87.2735 33.337L87.8424 35.4228C87.1923 35.7117 86.4609 35.9465 85.6482 36.1271C84.8356 36.3257 83.9236 36.425 82.9124 36.425ZM78.795 28.0819H86.5151C86.5151 26.7095 86.1719 25.653 85.4857 24.9126C84.7995 24.1722 83.8514 23.802 82.6415 23.802C81.5941 23.802 80.7272 24.1722 80.041 24.9126C79.3548 25.635 78.9394 26.6914 78.795 28.0819ZM95.8048 36.425C94.7393 36.425 93.7732 36.2896 92.9064 36.0187C92.0576 35.7478 91.3533 35.3957 90.7935 34.9623L91.8228 32.9307C92.2924 33.328 92.8793 33.6621 93.5836 33.9329C94.3059 34.1858 95.0734 34.3122 95.886 34.3122C96.8973 34.3122 97.6558 34.1496 98.1614 33.8246C98.6851 33.4815 98.947 33.0481 98.947 32.5244C98.947 32.1451 98.8477 31.811 98.649 31.5221C98.4684 31.2332 98.1253 30.9532 97.6197 30.6824C97.114 30.3934 96.3827 30.0864 95.4255 29.7614C94.1073 29.3099 93.114 28.7772 92.4459 28.1632C91.7957 27.5311 91.4707 26.6643 91.4707 25.5627C91.4707 24.4792 91.9402 23.5672 92.8793 22.8268C93.8364 22.0684 95.1547 21.6891 96.8341 21.6891C97.7371 21.6891 98.5407 21.7885 99.245 21.9871C99.9492 22.1677 100.581 22.4025 101.141 22.6914L100.464 24.6959C99.9763 24.407 99.4165 24.1722 98.7845 23.9916C98.1705 23.811 97.4842 23.7207 96.7258 23.7207C95.7867 23.7207 95.0734 23.9104 94.5858 24.2896C94.0982 24.6688 93.8544 25.0842 93.8544 25.5356C93.8544 25.969 94.0441 26.3393 94.4233 26.6463C94.8025 26.9532 95.5429 27.2873 96.6445 27.6485C98.4323 28.2444 99.6784 28.9036 100.383 29.6259C101.087 30.3483 101.439 31.2512 101.439 32.3347C101.439 33.5988 100.924 34.6011 99.8951 35.3415C98.8838 36.0639 97.5204 36.425 95.8048 36.425ZM110.372 36.425C109.036 36.425 107.862 36.118 106.851 35.504C105.857 34.872 105.09 34.0052 104.548 32.9036C104.006 31.7839 103.735 30.5018 103.735 29.0571C103.735 27.7027 104.006 26.4657 104.548 25.346C105.108 24.2264 105.902 23.3415 106.932 22.6914C107.961 22.0232 109.171 21.6891 110.562 21.6891C111.356 21.6891 112.051 21.7614 112.647 21.9058C113.261 22.0503 113.848 22.258 114.408 22.5289L113.677 24.5876C113.171 24.3347 112.684 24.1542 112.214 24.0458C111.763 23.9194 111.257 23.8562 110.697 23.8562C109.433 23.8562 108.367 24.3167 107.501 25.2377C106.652 26.1406 106.228 27.3957 106.228 29.0029C106.228 29.9781 106.408 30.863 106.769 31.6575C107.13 32.4521 107.627 33.0842 108.259 33.5537C108.909 34.0232 109.668 34.258 110.535 34.258C111.221 34.258 111.808 34.1858 112.295 34.0413C112.783 33.8788 113.307 33.653 113.866 33.3641L114.625 35.4228C114.065 35.7298 113.433 35.9736 112.729 36.1542C112.042 36.3347 111.257 36.425 110.372 36.425ZM117.46 36.1V22.0142H119.817V25.0751C120.052 24.4792 120.368 23.9284 120.765 23.4228C121.162 22.8991 121.659 22.4837 122.255 22.1767C122.851 21.8517 123.546 21.6891 124.341 21.6891C124.612 21.6891 124.883 21.7072 125.153 21.7433C125.424 21.7614 125.65 21.7975 125.831 21.8517L125.099 24.3709C124.756 24.2264 124.35 24.1542 123.88 24.1542C123.212 24.1542 122.571 24.3438 121.957 24.723C121.361 25.1022 120.864 25.6891 120.467 26.4837C120.088 27.2783 119.898 28.2896 119.898 29.5176V36.1H117.46ZM128.28 36.1V22.0142H130.718V36.1H128.28ZM129.499 19.6034C129.029 19.6034 128.623 19.4318 128.28 19.0887C127.955 18.7456 127.792 18.3483 127.792 17.8968C127.792 17.3731 127.946 16.9578 128.253 16.6508C128.56 16.3438 128.975 16.1903 129.499 16.1903C129.968 16.1903 130.366 16.3618 130.691 16.7049C131.034 17.03 131.205 17.4273 131.205 17.8968C131.205 18.4025 131.052 18.8178 130.745 19.1429C130.438 19.4499 130.022 19.6034 129.499 19.6034ZM141.39 36.425C140.578 36.425 139.81 36.2806 139.088 35.9916C138.384 35.6846 137.797 35.3325 137.327 34.9352V36.1H135.052V16.0548H137.49V23.4769C137.851 23.0616 138.375 22.6643 139.061 22.2851C139.765 21.8878 140.596 21.6891 141.553 21.6891C142.636 21.6891 143.648 21.9781 144.587 22.556C145.544 23.1158 146.311 23.9374 146.889 25.021C147.467 26.0864 147.756 27.3867 147.756 28.9216C147.756 30.0413 147.575 31.0616 147.214 31.9826C146.853 32.9036 146.366 33.6982 145.752 34.3663C145.156 35.0165 144.478 35.5221 143.72 35.8833C142.961 36.2444 142.185 36.425 141.39 36.425ZM140.74 34.258C141.625 34.258 142.402 34.0413 143.07 33.6079C143.756 33.1745 144.289 32.5605 144.668 31.7659C145.065 30.9713 145.264 30.0503 145.264 29.0029C145.264 27.9194 145.065 26.9894 144.668 26.2128C144.289 25.4363 143.774 24.8404 143.124 24.425C142.492 24.0097 141.788 23.802 141.011 23.802C140.235 23.802 139.53 24.0007 138.898 24.3979C138.284 24.7772 137.815 25.1925 137.49 25.644V33.1745C137.905 33.4995 138.393 33.7614 138.952 33.96C139.512 34.1587 140.108 34.258 140.74 34.258ZM156.77 36.425C154.747 36.425 153.14 35.7839 151.948 34.5018C150.774 33.2016 150.187 31.3867 150.187 29.0571C150.187 27.6485 150.449 26.3934 150.973 25.2918C151.514 24.1722 152.264 23.2964 153.221 22.6643C154.178 22.0142 155.289 21.6891 156.553 21.6891C157.907 21.6891 159.027 21.9871 159.912 22.583C160.815 23.1609 161.492 23.9465 161.943 24.9397C162.395 25.9329 162.621 27.0255 162.621 28.2174C162.621 28.8494 162.594 29.4634 162.539 30.0593H152.679C152.842 31.3776 153.302 32.407 154.061 33.1474C154.819 33.8878 155.821 34.258 157.068 34.258C157.88 34.258 158.612 34.1767 159.262 34.0142C159.912 33.8336 160.535 33.6079 161.131 33.337L161.7 35.4228C161.049 35.7117 160.318 35.9465 159.505 36.1271C158.693 36.3257 157.781 36.425 156.77 36.425ZM152.652 28.0819H160.372C160.372 26.7095 160.029 25.653 159.343 24.9126C158.657 24.1722 157.709 23.802 156.499 23.802C155.451 23.802 154.584 24.1722 153.898 24.9126C153.212 25.635 152.797 26.6914 152.652 28.0819Z" fill="#333333"/>
<path d="M166.141 36.1V17.1383H169.743L174.998 29.1383L180.172 17.1383H183.856V36.1H181.283V20.416L176.217 31.8201H173.671L168.578 20.416V36.1H166.141ZM188.732 36.1V17.1383H200.109V19.3596H191.305V25.1293H198.89V27.2964H191.305V33.8788H200.109V36.1H188.732Z" fill="#1C62DD"/>
<path d="M55.1168 44.467C55.0991 44.2883 55.023 44.1494 54.8886 44.0504C54.7541 43.9514 54.5717 43.9019 54.3412 43.9019C54.1847 43.9019 54.0524 43.9241 53.9446 43.9684C53.8368 44.0113 53.754 44.0711 53.6964 44.1479C53.6403 44.2247 53.6122 44.3119 53.6122 44.4094C53.6093 44.4906 53.6262 44.5615 53.6632 44.6221C53.7016 44.6827 53.754 44.7351 53.8205 44.7794C53.887 44.8223 53.9638 44.86 54.051 44.8925C54.1381 44.9235 54.2312 44.9501 54.3302 44.9722L54.7379 45.0697C54.9358 45.114 55.1176 45.1731 55.283 45.247C55.4485 45.3209 55.5918 45.4117 55.7129 45.5196C55.834 45.6274 55.9278 45.7544 55.9943 45.9007C56.0623 46.0469 56.097 46.2146 56.0985 46.4037C56.097 46.6814 56.0261 46.9222 55.8857 47.1261C55.7469 47.3285 55.546 47.4858 55.283 47.5981C55.0215 47.7089 54.7061 47.7643 54.3368 47.7643C53.9705 47.7643 53.6514 47.7081 53.3795 47.5959C53.1092 47.4836 52.898 47.3174 52.7458 47.0973C52.5951 46.8757 52.5161 46.6017 52.5087 46.2752H53.4372C53.4475 46.4273 53.4911 46.5544 53.5679 46.6563C53.6462 46.7568 53.7503 46.8329 53.8803 46.8846C54.0118 46.9348 54.1603 46.9599 54.3257 46.9599C54.4882 46.9599 54.6293 46.9363 54.749 46.889C54.8701 46.8417 54.9639 46.776 55.0304 46.6918C55.0969 46.6076 55.1301 46.5108 55.1301 46.4015C55.1301 46.2996 55.0998 46.2139 55.0393 46.1444C54.9802 46.075 54.893 46.0159 54.7778 45.9672C54.664 45.9184 54.5244 45.8741 54.359 45.8342L53.8648 45.7101C53.4822 45.6171 53.1801 45.4715 52.9585 45.2736C52.7369 45.0756 52.6269 44.809 52.6283 44.4736C52.6269 44.1989 52.7 43.9588 52.8477 43.7535C52.9969 43.5481 53.2015 43.3879 53.4615 43.2726C53.7215 43.1574 54.017 43.0998 54.3479 43.0998C54.6847 43.0998 54.9787 43.1574 55.2298 43.2726C55.4824 43.3879 55.6789 43.5481 55.8193 43.7535C55.9596 43.9588 56.032 44.1967 56.0364 44.467H55.1168ZM56.571 43.9529V43.1618H60.2982V43.9529H58.9088V47.7H57.9604V43.9529H56.571ZM60.912 47.7V43.1618H62.7024C63.0452 43.1618 63.3377 43.2231 63.5799 43.3458C63.8237 43.4669 64.0091 43.639 64.1361 43.8621C64.2646 44.0836 64.3289 44.3444 64.3289 44.6443C64.3289 44.9456 64.2639 45.2049 64.1339 45.4221C64.0039 45.6377 63.8156 45.8032 63.5688 45.9184C63.3236 46.0336 63.0267 46.0913 62.6781 46.0913H61.4792V45.3201H62.5229C62.7061 45.3201 62.8583 45.295 62.9794 45.2448C63.1006 45.1946 63.1907 45.1192 63.2498 45.0188C63.3103 44.9183 63.3406 44.7935 63.3406 44.6443C63.3406 44.4936 63.3103 44.3665 63.2498 44.2631C63.1907 44.1597 63.0998 44.0814 62.9772 44.0283C62.8561 43.9736 62.7032 43.9463 62.5185 43.9463H61.8715V47.7H60.912ZM63.3628 45.6348L64.4907 47.7H63.4315L62.3279 45.6348H63.3628ZM65.007 47.7V43.1618H68.0649V43.9529H65.9665V45.0343H67.9076V45.8254H65.9665V46.9089H68.0738V47.7H65.007ZM69.61 47.7H68.5818L70.1484 43.1618H71.3849L72.9493 47.7H71.9212L70.7844 44.1989H70.7489L69.61 47.7ZM69.5457 45.9162H71.9743V46.6652H69.5457V45.9162ZM73.4956 43.1618H74.6789L75.9286 46.2109H75.9818L77.2316 43.1618H78.4149V47.7H77.4842V44.7462H77.4465L76.2721 47.6779H75.6383L74.4639 44.7351H74.4262V47.7H73.4956V43.1618ZM79.2054 47.7V43.1618H80.1649V46.9089H82.1105V47.7H79.2054ZM83.7054 43.1618V47.7H82.7459V43.1618H83.7054ZM88.2906 43.1618V47.7H87.4619L85.4875 44.8437H85.4543V47.7H84.4948V43.1618H85.3368L87.2957 46.0159H87.3356V43.1618H88.2906ZM89.0834 47.7V43.1618H92.1413V43.9529H90.0429V45.0343H91.984V45.8254H90.0429V46.9089H92.1502V47.7H89.0834ZM94.0825 43.1618H95.1572L96.192 45.1163H96.2363L97.2712 43.1618H98.3459L96.6906 46.0957V47.7H95.7378V46.0957L94.0825 43.1618ZM102.766 45.4309C102.766 45.9258 102.672 46.3468 102.485 46.694C102.299 47.0411 102.044 47.3063 101.722 47.4895C101.402 47.6712 101.041 47.7621 100.641 47.7621C100.238 47.7621 99.8758 47.6705 99.5552 47.4873C99.2346 47.3041 98.9813 47.0389 98.7952 46.6918C98.609 46.3446 98.5159 45.9243 98.5159 45.4309C98.5159 44.936 98.609 44.515 98.7952 44.1679C98.9813 43.8207 99.2346 43.5563 99.5552 43.3746C99.8758 43.1914 100.238 43.0998 100.641 43.0998C101.041 43.0998 101.402 43.1914 101.722 43.3746C102.044 43.5563 102.299 43.8207 102.485 44.1679C102.672 44.515 102.766 44.936 102.766 45.4309ZM101.793 45.4309C101.793 45.1104 101.745 44.84 101.649 44.6199C101.555 44.3998 101.421 44.2329 101.248 44.1191C101.075 44.0054 100.873 43.9485 100.641 43.9485C100.409 43.9485 100.207 44.0054 100.034 44.1191C99.861 44.2329 99.7266 44.3998 99.6306 44.6199C99.536 44.84 99.4887 45.1104 99.4887 45.4309C99.4887 45.7515 99.536 46.0218 99.6306 46.2419C99.7266 46.4621 99.861 46.629 100.034 46.7427C100.207 46.8565 100.409 46.9134 100.641 46.9134C100.873 46.9134 101.075 46.8565 101.248 46.7427C101.421 46.629 101.555 46.4621 101.649 46.2419C101.745 46.0218 101.793 45.7515 101.793 45.4309ZM106.28 43.1618H107.239V46.109C107.239 46.4399 107.16 46.7294 107.002 46.9776C106.846 47.2258 106.626 47.4193 106.344 47.5582C106.062 47.6956 105.733 47.7643 105.358 47.7643C104.981 47.7643 104.652 47.6956 104.37 47.5582C104.088 47.4193 103.868 47.2258 103.712 46.9776C103.555 46.7294 103.477 46.4399 103.477 46.109V43.1618H104.436V46.027C104.436 46.1998 104.474 46.3535 104.549 46.4879C104.626 46.6223 104.734 46.728 104.873 46.8048C105.012 46.8816 105.173 46.92 105.358 46.92C105.544 46.92 105.706 46.8816 105.843 46.8048C105.982 46.728 106.089 46.6223 106.165 46.4879C106.242 46.3535 106.28 46.1998 106.28 46.027V43.1618ZM108.029 47.7V43.1618H109.819C110.162 43.1618 110.455 43.2231 110.697 43.3458C110.941 43.4669 111.126 43.639 111.253 43.8621C111.382 44.0836 111.446 44.3444 111.446 44.6443C111.446 44.9456 111.381 45.2049 111.251 45.4221C111.121 45.6377 110.932 45.8032 110.686 45.9184C110.44 46.0336 110.144 46.0913 109.795 46.0913H108.596V45.3201H109.64C109.823 45.3201 109.975 45.295 110.096 45.2448C110.217 45.1946 110.308 45.1192 110.367 45.0188C110.427 44.9183 110.457 44.7935 110.457 44.6443C110.457 44.4936 110.427 44.3665 110.367 44.2631C110.308 44.1597 110.217 44.0814 110.094 44.0283C109.973 43.9736 109.82 43.9463 109.635 43.9463H108.988V47.7H108.029ZM110.48 45.6348L111.608 47.7H110.548L109.445 45.6348H110.48ZM115.012 47.7V43.1618H116.803C117.147 43.1618 117.44 43.2276 117.682 43.359C117.925 43.489 118.109 43.67 118.236 43.9019C118.365 44.1324 118.429 44.3983 118.429 44.6997C118.429 45.001 118.364 45.2669 118.234 45.4974C118.104 45.7279 117.916 45.9073 117.669 46.0359C117.424 46.1644 117.127 46.2286 116.778 46.2286H115.637V45.4597H116.623C116.808 45.4597 116.96 45.428 117.08 45.3644C117.201 45.2994 117.291 45.2101 117.35 45.0963C117.411 44.9811 117.441 44.8489 117.441 44.6997C117.441 44.549 117.411 44.4175 117.35 44.3052C117.291 44.1915 117.201 44.1036 117.08 44.0415C116.959 43.978 116.805 43.9463 116.619 43.9463H115.972V47.7H115.012ZM119.052 47.7V43.1618H120.843C121.186 43.1618 121.478 43.2231 121.72 43.3458C121.964 43.4669 122.15 43.639 122.277 43.8621C122.405 44.0836 122.469 44.3444 122.469 44.6443C122.469 44.9456 122.404 45.2049 122.274 45.4221C122.144 45.6377 121.956 45.8032 121.709 45.9184C121.464 46.0336 121.167 46.0913 120.819 46.0913H119.62V45.3201H120.663C120.847 45.3201 120.999 45.295 121.12 45.2448C121.241 45.1946 121.331 45.1192 121.39 45.0188C121.451 44.9183 121.481 44.7935 121.481 44.6443C121.481 44.4936 121.451 44.3665 121.39 44.2631C121.331 44.1597 121.24 44.0814 121.118 44.0283C120.997 43.9736 120.844 43.9463 120.659 43.9463H120.012V47.7H119.052ZM121.503 45.6348L122.631 47.7H121.572L120.468 45.6348H121.503ZM123.147 47.7V43.1618H126.205V43.9529H124.107V45.0343H126.048V45.8254H124.107V46.9089H126.214V47.7H123.147ZM129.43 44.467C129.412 44.2883 129.336 44.1494 129.202 44.0504C129.067 43.9514 128.885 43.9019 128.655 43.9019C128.498 43.9019 128.366 43.9241 128.258 43.9684C128.15 44.0113 128.067 44.0711 128.01 44.1479C127.954 44.2247 127.925 44.3119 127.925 44.4094C127.923 44.4906 127.94 44.5615 127.976 44.6221C128.015 44.6827 128.067 44.7351 128.134 44.7794C128.2 44.8223 128.277 44.86 128.364 44.8925C128.451 44.9235 128.544 44.9501 128.643 44.9722L129.051 45.0697C129.249 45.114 129.431 45.1731 129.596 45.247C129.762 45.3209 129.905 45.4117 130.026 45.5196C130.147 45.6274 130.241 45.7544 130.308 45.9007C130.376 46.0469 130.41 46.2146 130.412 46.4037C130.41 46.6814 130.339 46.9222 130.199 47.1261C130.06 47.3285 129.859 47.4858 129.596 47.5981C129.335 47.7089 129.019 47.7643 128.65 47.7643C128.284 47.7643 127.965 47.7081 127.693 47.5959C127.422 47.4836 127.211 47.3174 127.059 47.0973C126.908 46.8757 126.829 46.6017 126.822 46.2752H127.75C127.761 46.4273 127.804 46.5544 127.881 46.6563C127.959 46.7568 128.064 46.8329 128.194 46.8846C128.325 46.9348 128.474 46.9599 128.639 46.9599C128.802 46.9599 128.943 46.9363 129.062 46.889C129.183 46.8417 129.277 46.776 129.344 46.6918C129.41 46.6076 129.443 46.5108 129.443 46.4015C129.443 46.2996 129.413 46.2139 129.353 46.1444C129.293 46.075 129.206 46.0159 129.091 45.9672C128.977 45.9184 128.838 45.8741 128.672 45.8342L128.178 45.7101C127.795 45.6171 127.493 45.4715 127.272 45.2736C127.05 45.0756 126.94 44.809 126.942 44.4736C126.94 44.1989 127.013 43.9588 127.161 43.7535C127.31 43.5481 127.515 43.3879 127.775 43.2726C128.035 43.1574 128.33 43.0998 128.661 43.0998C128.998 43.0998 129.292 43.1574 129.543 43.2726C129.796 43.3879 129.992 43.5481 130.133 43.7535C130.273 43.9588 130.345 44.1967 130.35 44.467H129.43ZM135.061 44.7506H134.091C134.073 44.6251 134.037 44.5135 133.982 44.416C133.927 44.3171 133.857 44.2329 133.772 44.1634C133.686 44.094 133.587 44.0408 133.475 44.0039C133.364 43.9669 133.243 43.9485 133.113 43.9485C132.879 43.9485 132.674 44.0068 132.5 44.1235C132.325 44.2388 132.19 44.4072 132.094 44.6288C131.998 44.8489 131.95 45.1163 131.95 45.4309C131.95 45.7544 131.998 46.0263 132.094 46.2464C132.192 46.4665 132.328 46.6327 132.502 46.745C132.676 46.8572 132.878 46.9134 133.107 46.9134C133.235 46.9134 133.354 46.8964 133.464 46.8624C133.574 46.8284 133.673 46.7789 133.758 46.7139C133.844 46.6475 133.915 46.5669 133.971 46.4724C134.029 46.3779 134.069 46.27 134.091 46.1489L135.061 46.1533C135.036 46.3616 134.973 46.5625 134.873 46.756C134.774 46.9481 134.64 47.1202 134.472 47.2723C134.305 47.423 134.105 47.5427 133.874 47.6313C133.643 47.7185 133.382 47.7621 133.091 47.7621C132.687 47.7621 132.325 47.6705 132.006 47.4873C131.688 47.3041 131.437 47.0389 131.252 46.6918C131.069 46.3446 130.977 45.9243 130.977 45.4309C130.977 44.936 131.07 44.515 131.257 44.1679C131.443 43.8207 131.695 43.5563 132.014 43.3746C132.333 43.1914 132.692 43.0998 133.091 43.0998C133.354 43.0998 133.598 43.1367 133.823 43.2106C134.049 43.2844 134.249 43.3923 134.423 43.5341C134.597 43.6744 134.739 43.8465 134.849 44.0504C134.959 44.2543 135.03 44.4877 135.061 44.7506ZM135.749 47.7V43.1618H137.54C137.883 43.1618 138.175 43.2231 138.417 43.3458C138.661 43.4669 138.846 43.639 138.973 43.8621C139.102 44.0836 139.166 44.3444 139.166 44.6443C139.166 44.9456 139.101 45.2049 138.971 45.4221C138.841 45.6377 138.653 45.8032 138.406 45.9184C138.161 46.0336 137.864 46.0913 137.515 46.0913H136.317V45.3201H137.36C137.543 45.3201 137.696 45.295 137.817 45.2448C137.938 45.1946 138.028 45.1192 138.087 45.0188C138.148 44.9183 138.178 44.7935 138.178 44.6443C138.178 44.4936 138.148 44.3665 138.087 44.2631C138.028 44.1597 137.937 44.0814 137.815 44.0283C137.693 43.9736 137.541 43.9463 137.356 43.9463H136.709V47.7H135.749ZM138.2 45.6348L139.328 47.7H138.269L137.165 45.6348H138.2ZM140.804 43.1618V47.7H139.844V43.1618H140.804ZM141.593 47.7V43.1618H143.384C143.728 43.1618 144.021 43.2276 144.263 43.359C144.506 43.489 144.69 43.67 144.817 43.9019C144.946 44.1324 145.01 44.3983 145.01 44.6997C145.01 45.001 144.945 45.2669 144.815 45.4974C144.685 45.7279 144.497 45.9073 144.25 46.0359C144.005 46.1644 143.708 46.2286 143.359 46.2286H142.218V45.4597H143.204C143.389 45.4597 143.541 45.428 143.661 45.3644C143.782 45.2994 143.872 45.2101 143.931 45.0963C143.992 44.9811 144.022 44.8489 144.022 44.6997C144.022 44.549 143.992 44.4175 143.931 44.3052C143.872 44.1915 143.782 44.1036 143.661 44.0415C143.54 43.978 143.386 43.9463 143.2 43.9463H142.553V47.7H141.593ZM145.461 43.9529V43.1618H149.188V43.9529H147.798V47.7H146.85V43.9529H145.461ZM150.761 43.1618V47.7H149.802V43.1618H150.761ZM155.721 45.4309C155.721 45.9258 155.627 46.3468 155.439 46.694C155.253 47.0411 154.999 47.3063 154.677 47.4895C154.356 47.6712 153.996 47.7621 153.596 47.7621C153.192 47.7621 152.83 47.6705 152.51 47.4873C152.189 47.3041 151.936 47.0389 151.75 46.6918C151.564 46.3446 151.471 45.9243 151.471 45.4309C151.471 44.936 151.564 44.515 151.75 44.1679C151.936 43.8207 152.189 43.5563 152.51 43.3746C152.83 43.1914 153.192 43.0998 153.596 43.0998C153.996 43.0998 154.356 43.1914 154.677 43.3746C154.999 43.5563 155.253 43.8207 155.439 44.1679C155.627 44.515 155.721 44.936 155.721 45.4309ZM154.748 45.4309C154.748 45.1104 154.7 44.84 154.604 44.6199C154.509 44.3998 154.376 44.2329 154.203 44.1191C154.03 44.0054 153.828 43.9485 153.596 43.9485C153.364 43.9485 153.161 44.0054 152.989 44.1191C152.816 44.2329 152.681 44.3998 152.585 44.6199C152.491 44.84 152.443 45.1104 152.443 45.4309C152.443 45.7515 152.491 46.0218 152.585 46.2419C152.681 46.4621 152.816 46.629 152.989 46.7427C153.161 46.8565 153.364 46.9134 153.596 46.9134C153.828 46.9134 154.03 46.8565 154.203 46.7427C154.376 46.629 154.509 46.4621 154.604 46.2419C154.7 46.0218 154.748 45.7515 154.748 45.4309ZM160.227 43.1618V47.7H159.399L157.424 44.8437H157.391V47.7H156.432V43.1618H157.274L159.232 46.0159H159.272V43.1618H160.227ZM163.482 44.467C163.464 44.2883 163.388 44.1494 163.254 44.0504C163.119 43.9514 162.937 43.9019 162.706 43.9019C162.55 43.9019 162.418 43.9241 162.31 43.9684C162.202 44.0113 162.119 44.0711 162.062 44.1479C162.005 44.2247 161.977 44.3119 161.977 44.4094C161.974 44.4906 161.991 44.5615 162.028 44.6221C162.067 44.6827 162.119 44.7351 162.186 44.7794C162.252 44.8223 162.329 44.86 162.416 44.8925C162.503 44.9235 162.596 44.9501 162.695 44.9722L163.103 45.0697C163.301 45.114 163.483 45.1731 163.648 45.247C163.814 45.3209 163.957 45.4117 164.078 45.5196C164.199 45.6274 164.293 45.7544 164.359 45.9007C164.427 46.0469 164.462 46.2146 164.464 46.4037C164.462 46.6814 164.391 46.9222 164.251 47.1261C164.112 47.3285 163.911 47.4858 163.648 47.5981C163.387 47.7089 163.071 47.7643 162.702 47.7643C162.336 47.7643 162.017 47.7081 161.745 47.5959C161.474 47.4836 161.263 47.3174 161.111 47.0973C160.96 46.8757 160.881 46.6017 160.874 46.2752H161.802C161.813 46.4273 161.856 46.5544 161.933 46.6563C162.011 46.7568 162.116 46.8329 162.246 46.8846C162.377 46.9348 162.525 46.9599 162.691 46.9599C162.853 46.9599 162.994 46.9363 163.114 46.889C163.235 46.8417 163.329 46.776 163.396 46.6918C163.462 46.6076 163.495 46.5108 163.495 46.4015C163.495 46.2996 163.465 46.2139 163.404 46.1444C163.345 46.075 163.258 46.0159 163.143 45.9672C163.029 45.9184 162.89 45.8741 162.724 45.8342L162.23 45.7101C161.847 45.6171 161.545 45.4715 161.324 45.2736C161.102 45.0756 160.992 44.809 160.994 44.4736C160.992 44.1989 161.065 43.9588 161.213 43.7535C161.362 43.5481 161.567 43.3879 161.827 43.2726C162.087 43.1574 162.382 43.0998 162.713 43.0998C163.05 43.0998 163.344 43.1574 163.595 43.2726C163.848 43.3879 164.044 43.5481 164.184 43.7535C164.325 43.9588 164.397 44.1967 164.402 44.467H163.482ZM167.575 47.7L166.276 43.1618H167.324L168.076 46.3151H168.113L168.942 43.1618H169.839L170.666 46.3217H170.706L171.457 43.1618H172.505L171.207 47.7H170.272L169.407 44.7329H169.372L168.51 47.7H167.575ZM173.978 43.1618V47.7H173.019V43.1618H173.978ZM174.595 43.9529V43.1618H178.322V43.9529H176.933V47.7H175.984V43.9529H174.595ZM178.936 47.7V43.1618H179.895V45.0343H181.843V43.1618H182.8V47.7H181.843V45.8254H179.895V47.7H178.936ZM185.036 47.7V43.1618H188.094V43.9529H185.995V45.0343H187.936V45.8254H185.995V46.9089H188.102V47.7H185.036ZM189.639 47.7H188.61L190.177 43.1618H191.414L192.978 47.7H191.95L190.813 44.1989H190.778L189.639 47.7ZM189.574 45.9162H192.003V46.6652H189.574V45.9162ZM195.882 44.467C195.865 44.2883 195.789 44.1494 195.654 44.0504C195.52 43.9514 195.337 43.9019 195.107 43.9019C194.95 43.9019 194.818 43.9241 194.71 43.9684C194.602 44.0113 194.52 44.0711 194.462 44.1479C194.406 44.2247 194.378 44.3119 194.378 44.4094C194.375 44.4906 194.392 44.5615 194.429 44.6221C194.467 44.6827 194.52 44.7351 194.586 44.7794C194.653 44.8223 194.729 44.86 194.817 44.8925C194.904 44.9235 194.997 44.9501 195.096 44.9722L195.504 45.0697C195.701 45.114 195.883 45.1731 196.049 45.247C196.214 45.3209 196.357 45.4117 196.479 45.5196C196.6 45.6274 196.693 45.7544 196.76 45.9007C196.828 46.0469 196.863 46.2146 196.864 46.4037C196.863 46.6814 196.792 46.9222 196.651 47.1261C196.513 47.3285 196.312 47.4858 196.049 47.5981C195.787 47.7089 195.472 47.7643 195.102 47.7643C194.736 47.7643 194.417 47.7081 194.145 47.5959C193.875 47.4836 193.664 47.3174 193.511 47.0973C193.361 46.8757 193.282 46.6017 193.274 46.2752H194.203C194.213 46.4273 194.257 46.5544 194.334 46.6563C194.412 46.7568 194.516 46.8329 194.646 46.8846C194.777 46.9348 194.926 46.9599 195.091 46.9599C195.254 46.9599 195.395 46.9363 195.515 46.889C195.636 46.8417 195.73 46.776 195.796 46.6918C195.863 46.6076 195.896 46.5108 195.896 46.4015C195.896 46.2996 195.865 46.2139 195.805 46.1444C195.746 46.075 195.659 46.0159 195.543 45.9672C195.43 45.9184 195.29 45.8741 195.125 45.8342L194.63 45.7101C194.248 45.6171 193.946 45.4715 193.724 45.2736C193.503 45.0756 193.393 44.809 193.394 44.4736C193.393 44.1989 193.466 43.9588 193.613 43.7535C193.763 43.5481 193.967 43.3879 194.227 43.2726C194.487 43.1574 194.783 43.0998 195.114 43.0998C195.45 43.0998 195.744 43.1574 195.995 43.2726C196.248 43.3879 196.445 43.5481 196.585 43.7535C196.725 43.9588 196.798 44.1967 196.802 44.467H195.882ZM197.509 47.7V43.1618H200.567V43.9529H198.469V45.0343H200.41V45.8254H198.469V46.9089H200.576V47.7H197.509Z" fill="#878282"/>
</svg>
